<?xml version="1.0" encoding="UTF-8"?>
<svg width="700pt" height="700pt" version="1.1" viewBox="0 0 700 700" xmlns="http://www.w3.org/2000/svg" xmlns:xlink="http://www.w3.org/1999/xlink">
 <g>
  <path d="m230.78 52.281h57.203 90.617 20.945c-3.5-4.5938-7.0547-9.2422-10.555-13.836-1.9688 6.2891-3.9375 12.633-5.8516 18.922-4.7031 15.258-9.4609 30.516-14.164 45.773l-17.062 55.125c-4.9219 15.859-9.8438 31.773-14.766 47.633-2.4062 7.7109-5.0859 15.422-7.2188 23.242-0.054688 0.10938-0.054688 0.21875-0.10938 0.32812-1.1484 3.7188 0.10938 7.9297 2.7891 10.664 3.0078 3.0078 6.6719 3.4453 10.664 2.7891 17.773-2.7344 35.492-5.4688 53.266-8.1484 28.273-4.3203 56.547-8.6953 84.82-13.016 6.4531-0.98437 12.906-1.9688 19.359-2.9531-4.1016-5.3594-8.2578-10.719-12.359-16.078-1.9688 2.7344-3.9922 5.5234-5.9609 8.2578l-16.406 22.641c-8.0391 11.102-16.078 22.203-24.117 33.359-9.8438 13.617-19.742 27.234-29.586 40.906-10.773 14.875-21.492 29.695-32.266 44.57-10.883 14.984-21.711 29.969-32.594 45.008-10.172 14.055-20.344 28.109-30.516 42.164-8.5312 11.812-17.117 23.625-25.648 35.438-6.1797 8.5312-12.305 17.008-18.484 25.539-2.9531 4.0469-6.0156 8.0391-8.8047 12.141-0.10937 0.16406-0.27344 0.32812-0.38281 0.49219 6.6719 2.7891 13.344 5.6328 20.016 8.4219 2.1875-6.8906 4.3203-13.836 6.5078-20.727 5.1953-16.625 10.391-33.195 15.641-49.82 6.2891-20.07 12.578-40.141 18.922-60.266 5.4141-17.281 10.828-34.562 16.242-51.844 2.625-8.4219 5.5781-16.844 7.9297-25.375 0.054688-0.10937 0.054688-0.21875 0.10938-0.38281 1.1484-3.6641-0.10938-7.9844-2.7891-10.664-2.8984-2.8984-6.7266-3.5547-10.664-2.7891-15.422 3.0078-30.789 6.0703-46.211 9.0781-24.336 4.7578-48.727 9.5703-73.062 14.328-5.6328 1.0938-11.32 2.2422-16.953 3.3359 4.5938 3.5 9.2422 7.0547 13.836 10.555 0.92969-9.7891 1.9141-19.578 2.8438-29.367 2.2969-23.516 4.5391-47.031 6.8359-70.547 2.7344-28.438 5.5234-56.93 8.2578-85.367 2.4062-24.609 4.7578-49.219 7.1641-73.883 1.1484-11.977 2.7891-24.008 3.5-36.039 0-0.16406 0.054688-0.32812 0.054688-0.49219 0.54687-5.6875-5.4141-11.211-10.938-10.938-6.3984 0.27344-10.336 4.8125-10.938 10.938-0.92969 9.7891-1.9141 19.578-2.8438 29.367-2.2969 23.516-4.5391 47.031-6.8359 70.547-2.7344 28.438-5.5234 56.93-8.2578 85.367-2.4062 24.609-4.7578 49.219-7.1641 73.883-1.1484 11.977-2.7891 24.008-3.5 36.039 0 0.16406-0.054687 0.32813-0.054687 0.49219-0.32813 3.3359 1.8047 6.6719 4.3203 8.5859 2.8984 2.2422 6.0156 2.625 9.5156 1.9688 15.422-3.0078 30.789-6.0703 46.211-9.0781 24.336-4.7578 48.727-9.5703 73.062-14.328 5.6328-1.0938 11.32-2.2422 16.953-3.3359-4.4844-4.4844-8.9688-8.9688-13.453-13.453-2.1875 6.8906-4.3203 13.836-6.5078 20.727-5.1953 16.625-10.391 33.195-15.641 49.82-6.2891 20.07-12.578 40.141-18.922 60.266-5.4141 17.281-10.828 34.562-16.242 51.844-2.625 8.4219-5.5781 16.844-7.9297 25.375-0.054687 0.10938-0.054687 0.21875-0.10938 0.38281-1.6406 5.1953 1.5312 10.883 6.3438 12.906 5.3047 2.2422 10.391 0 13.672-4.4844 1.9688-2.7344 3.9922-5.5234 5.9609-8.2578l16.406-22.641c8.0391-11.102 16.078-22.203 24.117-33.359 9.8438-13.617 19.742-27.234 29.586-40.906 10.773-14.875 21.492-29.695 32.266-44.57 10.883-14.984 21.711-29.969 32.594-45.008 10.172-14.055 20.344-28.109 30.516-42.164 8.5312-11.812 17.117-23.625 25.648-35.438 6.1797-8.5312 12.305-17.008 18.484-25.539 2.8984-4.0469 6.0703-7.9844 8.8047-12.141 0.10937-0.16406 0.27344-0.32812 0.38281-0.49219 2.5156-3.5 1.5859-9.0234-0.875-12.141-2.8984-3.7188-7-4.5938-11.484-3.9375-17.773 2.7344-35.492 5.4688-53.266 8.1484-28.273 4.3203-56.547 8.6953-84.82 13.016-6.4531 0.98438-12.906 1.9688-19.359 2.9531 4.4844 4.4844 8.9688 8.9688 13.453 13.453 1.9688-6.2891 3.9375-12.633 5.8516-18.922 4.7031-15.258 9.4609-30.516 14.164-45.773l17.062-55.125c4.9219-15.859 9.8438-31.773 14.766-47.633 2.4062-7.7109 5.0859-15.422 7.2188-23.242 0.054687-0.10937 0.054687-0.21875 0.10937-0.32812 2.1328-6.8359-3.6094-13.836-10.555-13.836h-57.203-90.617-20.945c-5.7422 0-11.211 5.0312-10.938 10.938s4.8125 10.938 10.938 10.938z"/>
 </g>
</svg>
