<?xml version="1.0" encoding="UTF-8"?>
<svg width="700pt" height="700pt" version="1.1" viewBox="0 0 700 700" xmlns="http://www.w3.org/2000/svg" xmlns:xlink="http://www.w3.org/1999/xlink">
 <g>
  <path d="m455.84 77.84c-34.719 0-70.559 16.238-95.762 43.121-3.9219 3.9219-7.2812 7.2812-10.078 10.641-2.8008-3.3594-6.1602-6.7188-10.078-10.641-25.199-26.879-61.039-43.121-95.762-43.121-67.199 0-118.16 50.398-118.16 118.16 0 66.641 30.238 100.24 80.078 150.08 61.602 61.602 130.48 124.32 131.04 124.88l12.32 11.199 12.32-11.199c0.55859-0.55859 69.441-63.281 131.04-124.88 50.965-49.84 81.203-83.438 81.203-150.08 0-67.762-50.961-118.16-118.16-118.16zm11.762 241.92c-45.922 45.359-95.203 91.277-117.6 112-22.398-20.719-71.68-66.641-117.6-112.56-50.398-50.398-69.441-73.922-69.441-123.76 0-47.039 34.16-80.641 80.641-80.641 24.641 0 49.84 11.762 68.32 31.359 14.559 15.68 24.078 25.199 24.078 25.199l13.441 14 13.441-14s8.9609-9.5195 24.078-25.199c18.48-19.602 44.238-31.359 68.32-31.359 47.039 0 80.641 34.16 80.641 80.641 0.5625 50.398-18.477 73.918-68.316 124.32z"/>
 </g>
</svg>
