<?xml version="1.0" encoding="UTF-8"?>
<svg width="700pt" height="700pt" version="1.1" viewBox="0 0 700 700" xmlns="http://www.w3.org/2000/svg">
 <path d="m560.7 516.25h-421.4c-22.051 0-41.648-11.375-52.5-30.625-10.852-19.074-10.5-41.824 0.69922-60.727l210.7-351.75c11.023-18.375 30.449-29.398 51.801-29.398s40.773 11.023 51.801 29.398l210.88 351.93c11.375 18.898 11.551 41.477 0.69922 60.727s-30.449 30.625-52.5 30.625zm-210.7-437.5c-9.1016 0-17.148 4.5508-21.875 12.25l-210.7 351.93c-4.7266 7.875-4.8984 17.324-0.35156 25.375 4.5508 8.0508 12.773 12.949 22.051 12.949h421.57c9.2734 0 17.5-4.7266 22.051-12.949 4.5508-8.0508 4.375-17.5-0.35156-25.375l-210.52-351.93c-4.7266-7.875-12.602-12.25-21.875-12.25z"/>
</svg>
