<?xml version="1.0" encoding="UTF-8"?>
<svg width="700pt" height="700pt" version="1.1" viewBox="0 0 700 700" xmlns="http://www.w3.org/2000/svg" xmlns:xlink="http://www.w3.org/1999/xlink">
 <g>
  <path d="m518 200.26h-19.656c-11.887 0.007813-23.285-4.707-31.695-13.105-4.2656-4.0859-9.9414-6.3672-15.848-6.3672s-11.586 2.2812-15.848 6.3672c-8.3711 8.4609-19.793 13.203-31.695 13.16h-5.6016c-11.887 0.007812-23.289-4.7031-31.695-13.105-4.2656-4.0859-9.9414-6.3672-15.848-6.3672s-11.586 2.2812-15.848 6.3672c-8.3711 8.4648-19.793 13.207-31.699 13.16h-5.6016 0.003906c-11.887 0.011718-23.289-4.7031-31.695-13.102-4.2656-4.0898-9.9414-6.3711-15.848-6.3711s-11.586 2.2812-15.852 6.3711c-8.3711 8.4609-19.789 13.203-31.695 13.16h-19.879c-6.1875 0-11.199-5.0156-11.199-11.203 0-6.1836 5.0117-11.199 11.199-11.199h19.656c5.9492-0.007813 11.652-2.3867 15.848-6.6094 8.4023-8.4102 19.805-13.137 31.695-13.137s23.293 4.7266 31.695 13.137c4.207 4.2031 9.9062 6.5586 15.848 6.5547h5.6016c5.9492-0.011719 11.652-2.3867 15.848-6.6094 8.4023-8.4102 19.805-13.137 31.695-13.137s23.293 4.7266 31.699 13.137c4.2031 4.1992 9.9023 6.5586 15.848 6.5508h5.6016-0.003906c5.9531-0.007812 11.652-2.3867 15.848-6.6055 8.4023-8.4141 19.809-13.141 31.695-13.141 11.891 0 23.293 4.7266 31.699 13.141 4.2031 4.1992 9.9023 6.5547 15.848 6.5508h19.879c6.1875 0 11.199 5.0156 11.199 11.199 0 6.1875-5.0117 11.203-11.199 11.203zm11.199 56c0-2.9727-1.1797-5.8203-3.2812-7.9219-2.0977-2.1016-4.9492-3.2812-7.918-3.2812h-19.656c-5.9414 0.007812-11.645-2.3516-15.848-6.5508-8.4023-8.4141-19.805-13.141-31.695-13.141s-23.293 4.7266-31.695 13.141c-4.1953 4.2188-9.8984 6.5977-15.848 6.6094h-5.6016c-5.9414 0.003907-11.645-2.3555-15.848-6.5547-8.4023-8.4102-19.805-13.137-31.695-13.137s-23.293 4.7266-31.699 13.137c-4.1914 4.2227-9.8945 6.5977-15.848 6.6094h-5.6016 0.003906c-5.9453 0.003906-11.645-2.3516-15.848-6.5508-8.4023-8.4141-19.809-13.141-31.695-13.141-11.891 0-23.293 4.7266-31.699 13.141-4.1953 4.2188-9.8945 6.5977-15.848 6.6055h-19.879c-6.1875 0-11.199 5.0156-11.199 11.203 0 6.1836 5.0117 11.199 11.199 11.199h19.656c11.902 0.042969 23.324-4.6992 31.695-13.16 4.2656-4.0859 9.9414-6.3672 15.848-6.3672s11.586 2.2812 15.848 6.3672c8.4102 8.3984 19.812 13.113 31.695 13.102h5.6016c11.902 0.046875 23.324-4.6953 31.695-13.16 4.2656-4.0859 9.9414-6.3672 15.848-6.3672s11.586 2.2812 15.848 6.3672c8.4102 8.4023 19.812 13.113 31.699 13.105h5.6016-0.003906c11.902 0.042969 23.324-4.6992 31.695-13.16 4.2656-4.0859 9.9414-6.3672 15.848-6.3672s11.586 2.2812 15.852 6.3672c8.4062 8.3984 19.809 13.113 31.695 13.105h19.879c6.1875 0 11.199-5.0156 11.199-11.199zm0 67.199c0-2.9727-1.1797-5.8203-3.2812-7.9219-2.0977-2.0977-4.9492-3.2773-7.918-3.2773h-19.656c-5.9414 0.003907-11.645-2.3555-15.848-6.5547-8.4023-8.4102-19.805-13.137-31.695-13.137s-23.293 4.7266-31.695 13.137c-4.1953 4.2227-9.8984 6.5977-15.848 6.6094h-5.6016c-5.9414 0.003906-11.645-2.3516-15.848-6.5508-8.4023-8.4141-19.805-13.141-31.695-13.141s-23.293 4.7266-31.699 13.141c-4.1914 4.2188-9.8945 6.5977-15.848 6.6055h-5.6016 0.003906c-5.9453 0.003906-11.645-2.3516-15.848-6.5508-8.4023-8.4141-19.809-13.141-31.695-13.141-11.891 0-23.293 4.7266-31.699 13.141-4.1953 4.2188-9.8945 6.5977-15.848 6.6094h-19.879c-6.1875 0-11.199 5.0117-11.199 11.199 0 6.1836 5.0117 11.199 11.199 11.199h19.656c11.902 0.042969 23.324-4.6992 31.695-13.16 4.2656-4.0859 9.9414-6.3672 15.848-6.3672s11.586 2.2812 15.848 6.3672c8.4102 8.3984 19.812 13.113 31.695 13.105h5.6016c11.902 0.042969 23.324-4.6992 31.695-13.16 4.2656-4.0898 9.9414-6.3711 15.848-6.3711s11.586 2.2812 15.848 6.3711c8.4102 8.3984 19.812 13.113 31.699 13.102h5.6016-0.003906c11.902 0.046874 23.324-4.6953 31.695-13.16 4.2656-4.0859 9.9414-6.3672 15.848-6.3672s11.586 2.2812 15.852 6.3672c8.4062 8.4023 19.809 13.113 31.695 13.105h19.879c6.1875 0 11.199-5.0156 11.199-11.199zm0 67.199c0-2.9688-1.1797-5.8203-3.2812-7.918-2.0977-2.1016-4.9492-3.2812-7.918-3.2812h-19.656c-5.9414 0.003907-11.645-2.3516-15.848-6.5547-8.4023-8.4102-19.805-13.137-31.695-13.137s-23.293 4.7266-31.695 13.137c-4.1953 4.2227-9.8984 6.5977-15.848 6.6094h-5.6016c-5.9414 0.003906-11.645-2.3516-15.848-6.5508-8.4023-8.4141-19.805-13.141-31.695-13.141s-23.293 4.7266-31.699 13.141c-4.1914 4.2188-9.8945 6.5977-15.848 6.6055h-5.6016 0.003906c-5.9453 0.007813-11.645-2.3516-15.848-6.5508-8.4023-8.4102-19.809-13.141-31.695-13.141-11.891 0-23.293 4.7305-31.699 13.141-4.1953 4.2188-9.8945 6.5977-15.848 6.6094h-19.879c-6.1875 0-11.199 5.0117-11.199 11.199 0 6.1836 5.0117 11.199 11.199 11.199h19.656c11.902 0.046874 23.324-4.6953 31.695-13.16 4.2656-4.0859 9.9414-6.3672 15.848-6.3672s11.586 2.2812 15.848 6.3672c8.4102 8.3984 19.812 13.113 31.695 13.105h5.6016c11.902 0.042969 23.324-4.6992 31.695-13.16 4.2656-4.0859 9.9414-6.3672 15.848-6.3672s11.586 2.2812 15.848 6.3672c8.4102 8.3984 19.812 13.113 31.699 13.102h5.6016-0.003906c11.902 0.046875 23.324-4.6953 31.695-13.156 4.2656-4.0898 9.9414-6.3711 15.848-6.3711s11.586 2.2812 15.852 6.3711c8.4062 8.3984 19.809 13.113 31.695 13.102h19.879c2.9688 0 5.8203-1.1797 7.918-3.2812 2.1016-2.0977 3.2812-4.9492 3.2812-7.918z"/>
 </g>
</svg>
